<svg width="870" height="252" viewBox="0 0 870 252" fill="none" xmlns="http://www.w3.org/2000/svg">
<path d="M837.869 79.3407C839.261 78.9123 840.225 78.591 840.975 78.3768C850.079 75.3778 853.507 73.0214 853.507 69.594C853.507 66.1665 850.293 63.2746 846.545 63.2746C841.296 63.2746 838.19 68.8442 837.869 79.3407ZM870.001 73.664L838.94 85.9814C840.868 92.7292 843.76 95.1926 849.544 95.1926C854.364 95.1926 858.434 93.3718 866.895 87.2667C866.36 91.8723 866.253 92.9434 866.145 97.0135C857.47 103.011 853.185 104.404 844.403 104.404C828.551 104.404 816.876 94.55 816.876 81.0544C816.876 66.3807 829.193 55.7771 846.116 55.7771C854.792 55.7771 860.897 58.0264 865.074 62.632C867.752 65.5239 868.823 67.8802 870.001 73.664Z" fill="#F5F2E9"/>
<path d="M811.865 90.1586L811.115 95.4068L810.58 99.2627C804.046 103.547 801.047 104.297 793.871 104.297C778.019 104.297 766.773 94.6571 766.773 80.7331C766.773 65.7381 777.805 55.7771 794.3 55.7771C801.797 55.7771 804.796 56.634 811.437 60.3827C811.758 65.7381 811.865 67.2376 812.722 73.1285C805.653 66.4878 802.011 64.3457 797.62 64.3457C791.301 64.3457 788.409 69.7011 788.409 81.3758C788.409 90.2657 792.05 95.6211 798.155 95.6211C801.476 95.6211 804.689 94.55 809.937 91.3368L811.865 90.1586Z" fill="#F5F2E9"/>
<path d="M739.557 79.6621C733.023 80.8402 730.024 83.8392 730.024 89.4088C730.024 92.7292 731.524 94.8713 733.773 94.8713C737.094 94.8713 739.557 90.8012 739.557 85.3387V79.6621ZM714.173 73.2356C715.137 67.2376 715.244 65.7381 715.779 60.0614C722.313 56.9553 728.204 55.7771 736.772 55.7771C746.84 55.7771 754.766 58.9903 758.087 64.5599C759.265 66.3807 759.693 69.3797 759.693 75.2707V91.1225C759.693 94.6571 760.015 96.7992 761.835 103.547H742.556L740.628 98.2987C736.772 103.226 733.345 104.725 727.133 104.725C716.315 104.725 709.246 98.9414 709.246 89.8373C709.246 82.3397 714.28 76.663 722.527 74.5209C727.025 73.3427 729.489 73.1285 738.486 72.4859C738.593 71.8432 738.593 71.0935 738.593 70.4508C738.593 66.1665 736.558 63.9173 732.702 63.9173C727.775 63.9173 723.598 66.0594 714.173 73.2356Z" fill="#F5F2E9"/>
<path d="M647.655 61.0254L666.506 54.9203C668.113 57.598 668.434 58.2406 669.291 60.9183C673.789 57.3838 677.752 55.8843 683.001 55.8843C695.747 55.8843 705.065 66.1666 705.065 80.1976C705.065 94.0145 695.211 104.511 682.358 104.511C681.715 104.511 680.966 104.404 679.68 104.083L673.897 95.9424C674.432 95.9424 674.753 95.9424 675.182 95.9424C680.323 95.9424 683.965 89.8373 683.965 80.8403C683.965 71.2006 681.073 65.3097 676.467 65.3097C672.826 65.3097 671.219 68.7371 671.219 76.1276V104.939C671.219 109.117 671.54 111.366 673.575 119.506H649.262C650.547 114.686 651.19 110.509 651.19 106.332V77.1986C651.19 71.0935 650.547 68.2016 647.655 61.0254Z" fill="#F5F2E9"/>
<path d="M640.083 72.3787C632.799 65.631 629.158 63.5959 624.445 63.5959C621.125 63.5959 618.447 65.5239 618.447 67.8802C618.447 69.8082 619.518 70.7721 622.838 71.7361L626.48 72.8072L630.979 73.9854C638.476 75.9133 642.332 80.1976 642.332 86.5169C642.332 97.2277 632.478 104.511 617.804 104.511C609.343 104.511 603.131 102.583 597.561 97.9774C597.668 95.7282 597.775 94.0144 597.775 92.9434C597.775 91.7652 597.668 89.9444 597.561 87.4809C603.131 93.2647 608.914 96.3708 614.056 96.3708C617.59 96.3708 620.696 94.4429 620.696 92.1936C620.696 89.623 618.447 88.1235 613.841 87.4809C604.844 86.0885 600.56 83.8392 598.204 79.2336C597.347 77.5199 596.918 75.6991 596.918 73.8783C596.918 63.3817 607.201 55.7771 621.339 55.7771C627.98 55.7771 631.086 56.5269 638.262 59.5259C638.69 64.8812 638.905 66.2736 640.083 72.3787Z" fill="#F5F2E9"/>
<path d="M537.515 34.9983C547.154 32.1064 549.618 31.3566 559.579 27.9292V74.628C566.541 71.3077 569.218 69.4869 571.682 66.1665C573.61 63.4889 574.36 61.5609 575.324 56.7411H589.569C587.427 61.3467 586.356 62.9533 583.678 66.0594C581.964 67.9874 580.572 69.2727 575.645 73.4498C579.501 77.3057 580.786 78.6981 582.393 80.7332C584.321 83.1966 586.356 86.4098 588.284 90.1586C590.319 94.2287 591.39 96.9064 593.746 103.547H570.182C569.647 99.6912 569.326 98.2988 568.254 95.2998C565.898 89.0875 564.399 86.7312 559.793 81.8042L559.686 91.0155C559.686 94.9784 560.114 97.4419 561.828 103.547H537.729C539.228 97.3348 539.657 94.55 539.657 89.1946V48.3867C539.657 43.5669 539.335 40.9963 537.515 34.9983Z" fill="#F5F2E9"/>
<path d="M531.754 90.1586L531.005 95.4068L530.469 99.2627C523.935 103.547 520.936 104.297 513.76 104.297C497.908 104.297 486.662 94.6571 486.662 80.7331C486.662 65.7381 497.694 55.7771 514.189 55.7771C521.686 55.7771 524.685 56.634 531.326 60.3827C531.647 65.7381 531.754 67.2376 532.611 73.1285C525.542 66.4878 521.9 64.3457 517.509 64.3457C511.19 64.3457 508.298 69.7011 508.298 81.3758C508.298 90.2657 511.939 95.6211 518.045 95.6211C521.365 95.6211 524.578 94.55 529.826 91.3368L531.754 90.1586Z" fill="#F5F2E9"/>
<path d="M459.446 79.6621C452.913 80.8402 449.914 83.8392 449.914 89.4088C449.914 92.7292 451.413 94.8713 453.662 94.8713C456.983 94.8713 459.446 90.8012 459.446 85.3387V79.6621ZM434.062 73.2356C435.026 67.2376 435.133 65.7381 435.668 60.0614C442.202 56.9553 448.093 55.7771 456.661 55.7771C466.729 55.7771 474.655 58.9903 477.976 64.5599C479.154 66.3807 479.582 69.3797 479.582 75.2707V91.1225C479.582 94.6571 479.904 96.7992 481.725 103.547H462.445L460.517 98.2987C456.661 103.226 453.234 104.725 447.022 104.725C436.204 104.725 429.135 98.9414 429.135 89.8373C429.135 82.3397 434.169 76.663 442.416 74.5209C446.915 73.3427 449.378 73.1285 458.375 72.4859C458.482 71.8432 458.482 71.0935 458.482 70.4508C458.482 66.1665 456.447 63.9173 452.591 63.9173C447.664 63.9173 443.487 66.0594 434.062 73.2356Z" fill="#F5F2E9"/>
<path d="M380.929 72.8073V80.4119C380.929 92.1937 381.893 94.443 387.248 94.443C394.424 94.443 399.78 88.8734 399.78 81.3759C399.78 76.2347 397.638 72.5931 392.925 69.7012C392.175 69.9154 391.532 70.1296 391.104 70.2367C389.39 70.7722 388.426 70.9864 388.105 71.0935L383.607 72.0575L380.929 72.8073ZM380.929 63.0605C386.606 60.8112 388.855 59.4188 391.532 56.4198C393.996 53.7421 395.281 50.8502 395.281 47.9583C395.281 42.8172 392.068 39.9253 386.606 39.9253C381.357 39.9253 380.929 40.4608 380.929 47.2086V63.0605ZM355.866 32.2136L393.568 32.1064C405.564 32.1064 408.134 32.5349 411.883 34.677C416.167 37.1405 418.738 41.8532 418.738 47.2086C418.738 54.0635 415.417 59.0975 407.813 63.596C413.49 65.524 415.632 66.7021 418.524 69.8083C421.951 73.2357 423.558 77.1987 423.558 82.3398C423.558 90.0516 419.809 96.5851 413.597 99.9054C408.455 102.797 403.1 103.547 390.14 103.547H355.866C357.901 96.478 358.543 91.7653 358.543 85.3388V48.9223C358.543 43.4598 358.008 40.3537 355.866 32.2136Z" fill="#F5F2E9"/>
<path d="M725.946 152.248H750.26C749.403 157.389 749.296 159.424 749.296 163.28C749.296 168.635 749.938 174.312 751.224 179.668C752.509 185.237 753.58 187.701 757.222 193.806L758.079 191.556L759.792 187.808C761.078 184.916 762.577 179.453 763.327 174.633C763.969 170.778 764.291 166.386 764.291 161.352C764.291 157.175 764.184 155.997 763.541 152.248H777.679L776.929 155.675L775.858 159.96L774.787 165.208L773.395 173.241C771.681 183.845 765.79 198.626 760.542 205.695C754.972 213.192 748.546 217.048 741.156 217.048C739.656 217.048 739.013 217.048 737.514 216.512L733.337 205.373L735.479 206.016C738.264 206.98 740.62 207.408 742.334 207.408C746.939 207.408 751.224 204.302 753.58 199.268H739.335L737.621 196.162C733.23 187.486 732.587 185.773 730.659 178.489C729.802 175.276 729.267 172.491 728.945 170.242L727.767 161.245L726.803 156.104L725.946 152.248Z" fill="#F5F2E9"/>
<path d="M689.651 162.209V154.176C695.971 153.747 699.398 151.82 702.076 147.214C703.361 145.072 703.575 144.108 704.861 137.574H716V152.462H724.568V162.209H716V185.023C716 192.306 717.499 195.948 721.998 199.268H704.004C698.006 199.268 695.971 196.698 695.971 189.2V162.209H689.651Z" fill="#F5F2E9"/>
<path d="M673.883 129.22C680.524 129.22 685.13 133.076 685.13 138.538C685.13 143.68 679.881 147.75 673.348 147.75C667.028 147.75 662.209 143.787 662.209 138.538C662.209 133.076 667.136 129.22 673.883 129.22ZM661.566 156.318L684.487 148.821V188.451C684.487 192.306 684.808 194.341 686.094 199.268H661.887C663.387 194.127 663.708 192.306 663.708 187.272L663.815 168.529C663.815 165.315 662.958 160.495 661.566 156.318Z" fill="#F5F2E9"/>
<path d="M620.428 175.705C620.428 186.094 622.677 191.021 627.39 191.021C631.995 191.021 634.138 185.558 634.138 174.098C634.138 163.816 632.317 159.746 627.604 159.746C622.891 159.746 620.428 165.315 620.428 175.705ZM633.923 154.711L634.031 143.679C634.031 140.252 633.495 137.467 631.674 130.398C641.421 127.828 643.884 127.078 654.167 123.543V185.88C654.167 190.271 654.488 192.949 655.88 199.268H636.815C635.851 197.233 635.744 196.59 635.316 193.806C632.21 198.411 628.354 200.125 621.713 200.125C608.539 200.125 598.685 190.164 598.685 176.561C598.685 162.745 609.717 151.605 623.534 151.605C627.925 151.605 629.853 152.141 633.923 154.711Z" fill="#F5F2E9"/>
<path d="M558.297 175.705C558.297 186.094 560.546 191.021 565.259 191.021C569.865 191.021 572.007 185.558 572.007 174.098C572.007 163.816 570.186 159.746 565.473 159.746C560.76 159.746 558.297 165.315 558.297 175.705ZM571.793 154.711L571.9 143.679C571.9 140.252 571.364 137.467 569.543 130.398C579.29 127.828 581.754 127.078 592.036 123.543V185.88C592.036 190.271 592.357 192.949 593.75 199.268H574.684C573.72 197.233 573.613 196.59 573.185 193.806C570.079 198.411 566.223 200.125 559.582 200.125C546.408 200.125 536.554 190.164 536.554 176.561C536.554 162.745 547.586 151.605 561.403 151.605C565.795 151.605 567.722 152.141 571.793 154.711Z" fill="#F5F2E9"/>
<path d="M492.527 135.432C482.888 135.432 477.425 144.858 477.425 161.781C477.425 172.17 479.032 180.631 482.138 185.987C483.959 189.307 488.35 191.771 492.527 191.771C501.953 191.771 507.094 181.488 507.094 162.745C507.094 145.393 501.846 135.432 492.527 135.432ZM491.563 126.007C514.806 126.007 531.622 141.752 531.622 163.173C531.622 184.166 514.377 200.768 492.634 200.768C470.035 200.768 452.791 184.916 452.791 163.816C452.791 142.18 469.285 126.007 491.563 126.007Z" fill="#F5F2E9"/>
<path d="M251.022 125.275C251.022 147.818 244.821 166.092 240.913 166.092C237.005 166.092 236.869 147.818 236.869 125.275C236.869 102.733 237.005 84.4585 240.913 84.4585C244.821 84.4585 251.022 102.733 251.022 125.275Z" fill="#F5F2E9"/>
<path d="M219.196 125.904C219.196 172.116 214.353 209.578 212.119 209.578C209.886 209.578 211.108 172.116 211.108 125.904C211.108 79.6916 209.886 42.2292 212.119 42.2292C214.353 42.2292 219.196 79.6916 219.196 125.904Z" fill="#F5F2E9"/>
<path d="M189.356 125.427C189.356 185.728 185.524 234.612 183.29 234.612C181.057 234.612 181.269 185.728 181.269 125.427C181.269 65.1256 181.057 16.2418 183.29 16.2418C185.524 16.2418 189.356 65.1256 189.356 125.427Z" fill="#F5F2E9"/>
<path d="M160.528 125.512C160.528 194.83 155.549 251.023 149.408 251.023C143.266 251.023 138.287 194.83 138.287 125.512C138.287 56.1935 143.266 0 149.408 0C155.549 0 160.528 56.1935 160.528 125.512Z" fill="#F5F2E9"/>
<path d="M120.611 125.251C120.611 192.033 117.975 246.171 109.042 246.171C100.108 246.171 88.2612 192.033 88.2612 125.251C88.2612 58.469 100.108 4.3313 109.042 4.3313C117.975 4.3313 120.611 58.469 120.611 125.251Z" fill="#F5F2E9"/>
<path d="M70.7662 125.665C70.7662 178.922 66.0041 222.095 46.1834 222.095C26.3627 222.095 0 178.922 0 125.665C0 72.4088 26.3627 29.2357 46.1834 29.2357C66.0041 29.2357 70.7662 72.4088 70.7662 125.665Z" fill="#F5F2E9"/>
</svg>
